<svg width="500" height="350" viewBox="0 0 500 350" fill="none" xmlns="http://www.w3.org/2000/svg">
<rect width="500" height="350" fill="#D6D6D6"/>
<path d="M272.25 125.333H272.324M253.708 221.75H205.5C199.599 221.75 193.94 219.406 189.767 215.233C185.594 211.06 183.25 205.401 183.25 199.5V110.5C183.25 104.599 185.594 98.9396 189.767 94.7669C193.94 90.5942 199.599 88.25 205.5 88.25H294.5C300.401 88.25 306.06 90.5942 310.233 94.7669C314.406 98.9396 316.75 104.599 316.75 110.5V158.708" stroke="#7F7F7F" stroke-width="12" stroke-linecap="round" stroke-linejoin="round"/>
<path d="M183.25 184.667L220.333 147.583C227.216 140.96 235.701 140.96 242.583 147.583L268.542 173.542" stroke="#7F7F7F" stroke-width="12" stroke-linecap="round" stroke-linejoin="round"/>
<path d="M264.833 169.833L272.25 162.417C277.286 157.574 283.175 156.268 288.67 158.516M301.917 229.167V184.667M301.917 184.667L324.167 206.917M301.917 184.667L279.667 206.917" stroke="#7F7F7F" stroke-width="12" stroke-linecap="round" stroke-linejoin="round"/>
<path d="M208.418 273.5H207.416C207.342 273.127 207.207 272.783 207.011 272.467C206.82 272.147 206.578 271.868 206.287 271.63C205.996 271.392 205.666 271.208 205.296 271.076C204.927 270.945 204.527 270.879 204.098 270.879C203.409 270.879 202.78 271.059 202.212 271.417C201.647 271.776 201.195 272.303 200.854 272.999C200.516 273.692 200.348 274.54 200.348 275.545C200.348 276.558 200.516 277.41 200.854 278.102C201.195 278.795 201.647 279.32 202.212 279.679C202.78 280.034 203.409 280.212 204.098 280.212C204.527 280.212 204.927 280.146 205.296 280.015C205.666 279.883 205.996 279.7 206.287 279.466C206.578 279.228 206.82 278.949 207.011 278.63C207.207 278.31 207.342 277.964 207.416 277.591H208.418C208.329 278.092 208.162 278.559 207.917 278.992C207.676 279.422 207.367 279.798 206.99 280.121C206.617 280.444 206.188 280.696 205.701 280.877C205.215 281.059 204.68 281.149 204.098 281.149C203.182 281.149 202.368 280.92 201.658 280.462C200.948 280 200.39 279.35 199.986 278.512C199.584 277.674 199.384 276.685 199.384 275.545C199.384 274.406 199.584 273.417 199.986 272.578C200.39 271.74 200.948 271.092 201.658 270.634C202.368 270.173 203.182 269.942 204.098 269.942C204.68 269.942 205.215 270.032 205.701 270.213C206.188 270.391 206.617 270.643 206.99 270.97C207.367 271.293 207.676 271.669 207.917 272.099C208.162 272.529 208.329 272.996 208.418 273.5ZM211.509 270.091V281H210.56V270.091H211.509ZM214.028 281V272.818H214.982V281H214.028ZM214.513 271.412C214.317 271.412 214.151 271.346 214.012 271.215C213.874 271.08 213.804 270.918 213.804 270.73C213.804 270.542 213.874 270.382 214.012 270.251C214.151 270.116 214.317 270.048 214.513 270.048C214.708 270.048 214.875 270.116 215.013 270.251C215.152 270.382 215.221 270.542 215.221 270.73C215.221 270.918 215.152 271.08 215.013 271.215C214.875 271.346 214.708 271.412 214.513 271.412ZM220.685 281.17C219.954 281.17 219.316 280.988 218.773 280.622C218.233 280.256 217.814 279.755 217.516 279.12C217.217 278.484 217.068 277.76 217.068 276.946C217.068 276.126 217.219 275.396 217.521 274.757C217.826 274.118 218.249 273.617 218.789 273.255C219.329 272.889 219.955 272.706 220.669 272.706C221.216 272.706 221.711 272.813 222.155 273.026C222.599 273.235 222.965 273.532 223.253 273.915C223.544 274.295 223.727 274.739 223.801 275.247H222.842C222.743 274.786 222.503 274.391 222.123 274.065C221.747 273.734 221.267 273.569 220.685 273.569C220.163 273.569 219.701 273.711 219.3 273.995C218.899 274.276 218.585 274.668 218.357 275.173C218.134 275.673 218.022 276.254 218.022 276.914C218.022 277.578 218.132 278.166 218.352 278.678C218.572 279.185 218.881 279.583 219.279 279.871C219.68 280.158 220.149 280.302 220.685 280.302C221.047 280.302 221.378 280.235 221.676 280.1C221.978 279.961 222.23 279.766 222.432 279.514C222.638 279.262 222.777 278.962 222.848 278.614H223.807C223.736 279.107 223.56 279.548 223.279 279.935C223.002 280.318 222.642 280.62 222.198 280.84C221.758 281.06 221.253 281.17 220.685 281.17ZM226.702 277.911L226.691 276.669H226.904L230.739 272.818H231.938L228.15 276.611L228.065 276.627L226.702 277.911ZM225.839 281V270.091H226.787V281H225.839ZM230.936 281L227.612 276.797L228.294 276.142L232.151 281H230.936ZM241.161 272.818V273.644H237.256V272.818H241.161ZM238.476 270.858H239.43V278.864C239.43 279.205 239.488 279.473 239.606 279.668C239.723 279.86 239.875 279.997 240.064 280.078C240.252 280.157 240.453 280.196 240.666 280.196C240.79 280.196 240.896 280.189 240.985 280.174C241.074 280.157 241.152 280.139 241.22 280.121L241.422 280.979C241.33 281.014 241.216 281.046 241.081 281.075C240.946 281.107 240.779 281.123 240.58 281.123C240.232 281.123 239.897 281.046 239.574 280.893C239.254 280.741 238.991 280.513 238.785 280.212C238.579 279.91 238.476 279.535 238.476 279.088V270.858ZM246.406 281.17C245.7 281.17 245.075 280.991 244.531 280.632C243.992 280.274 243.569 279.778 243.264 279.146C242.958 278.511 242.806 277.777 242.806 276.946C242.806 276.108 242.958 275.371 243.264 274.736C243.569 274.097 243.992 273.599 244.531 273.244C245.075 272.886 245.7 272.706 246.406 272.706C247.113 272.706 247.736 272.886 248.276 273.244C248.816 273.603 249.238 274.1 249.544 274.736C249.853 275.371 250.007 276.108 250.007 276.946C250.007 277.777 249.855 278.511 249.549 279.146C249.244 279.778 248.819 280.274 248.276 280.632C247.736 280.991 247.113 281.17 246.406 281.17ZM246.406 280.302C246.975 280.302 247.456 280.15 247.85 279.844C248.244 279.539 248.542 279.132 248.745 278.624C248.951 278.116 249.054 277.557 249.054 276.946C249.054 276.336 248.951 275.775 248.745 275.263C248.542 274.752 248.244 274.342 247.85 274.033C247.456 273.724 246.975 273.569 246.406 273.569C245.842 273.569 245.361 273.724 244.963 274.033C244.569 274.342 244.269 274.752 244.063 275.263C243.86 275.775 243.759 276.336 243.759 276.946C243.759 277.557 243.86 278.116 244.063 278.624C244.269 279.132 244.569 279.539 244.963 279.844C245.357 280.15 245.838 280.302 246.406 280.302ZM261.506 277.873V272.818H262.454V281H261.506V279.642H261.432C261.24 280.061 260.936 280.411 260.521 280.691C260.105 280.968 259.598 281.107 258.997 281.107C258.475 281.107 258.012 280.993 257.607 280.766C257.202 280.535 256.884 280.197 256.654 279.754C256.423 279.31 256.307 278.765 256.307 278.118V272.818H257.256V278.06C257.256 278.699 257.444 279.214 257.82 279.604C258.197 279.991 258.68 280.185 259.269 280.185C259.638 280.185 259.994 280.096 260.334 279.919C260.675 279.741 260.956 279.482 261.176 279.141C261.396 278.797 261.506 278.374 261.506 277.873ZM264.965 284.068V272.818H265.886V274.379H265.998C266.112 274.134 266.268 273.884 266.467 273.628C266.666 273.369 266.928 273.15 267.255 272.973C267.585 272.795 268.001 272.706 268.502 272.706C269.176 272.706 269.766 272.884 270.27 273.239C270.778 273.591 271.172 274.084 271.453 274.72C271.737 275.352 271.879 276.089 271.879 276.93C271.879 277.776 271.737 278.516 271.453 279.152C271.172 279.787 270.778 280.283 270.27 280.638C269.766 280.993 269.18 281.17 268.512 281.17C268.019 281.17 267.605 281.082 267.271 280.904C266.941 280.727 266.673 280.508 266.467 280.249C266.264 279.986 266.108 279.73 265.998 279.482H265.913V284.068H264.965ZM265.902 276.914C265.902 277.575 266 278.161 266.195 278.672C266.394 279.18 266.678 279.58 267.047 279.871C267.42 280.158 267.871 280.302 268.4 280.302C268.944 280.302 269.402 280.153 269.775 279.855C270.151 279.553 270.437 279.146 270.632 278.635C270.831 278.124 270.931 277.55 270.931 276.914C270.931 276.286 270.833 275.719 270.638 275.215C270.446 274.711 270.162 274.311 269.785 274.017C269.409 273.718 268.947 273.569 268.4 273.569C267.868 273.569 267.415 273.713 267.042 274.001C266.669 274.285 266.385 274.679 266.19 275.183C265.998 275.684 265.902 276.261 265.902 276.914ZM274.907 270.091V281H273.959V270.091H274.907ZM280.596 281.17C279.889 281.17 279.264 280.991 278.721 280.632C278.181 280.274 277.759 279.778 277.453 279.146C277.148 278.511 276.995 277.777 276.995 276.946C276.995 276.108 277.148 275.371 277.453 274.736C277.759 274.097 278.181 273.599 278.721 273.244C279.264 272.886 279.889 272.706 280.596 272.706C281.303 272.706 281.926 272.886 282.466 273.244C283.005 273.603 283.428 274.1 283.733 274.736C284.042 275.371 284.197 276.108 284.197 276.946C284.197 277.777 284.044 278.511 283.739 279.146C283.433 279.778 283.009 280.274 282.466 280.632C281.926 280.991 281.303 281.17 280.596 281.17ZM280.596 280.302C281.164 280.302 281.645 280.15 282.039 279.844C282.434 279.539 282.732 279.132 282.934 278.624C283.14 278.116 283.243 277.557 283.243 276.946C283.243 276.336 283.14 275.775 282.934 275.263C282.732 274.752 282.434 274.342 282.039 274.033C281.645 273.724 281.164 273.569 280.596 273.569C280.031 273.569 279.55 273.724 279.152 274.033C278.758 274.342 278.458 274.752 278.252 275.263C278.05 275.775 277.949 276.336 277.949 276.946C277.949 277.557 278.05 278.116 278.252 278.624C278.458 279.132 278.758 279.539 279.152 279.844C279.547 280.15 280.028 280.302 280.596 280.302ZM288.563 281.186C288.07 281.186 287.619 281.091 287.21 280.899C286.802 280.703 286.477 280.423 286.236 280.057C285.994 279.688 285.873 279.24 285.873 278.715C285.873 278.31 285.95 277.969 286.102 277.692C286.255 277.415 286.472 277.188 286.752 277.01C287.033 276.833 287.365 276.692 287.748 276.589C288.132 276.487 288.554 276.407 289.016 276.35C289.474 276.293 289.861 276.243 290.177 276.201C290.497 276.158 290.74 276.091 290.907 275.998C291.074 275.906 291.157 275.757 291.157 275.551V275.359C291.157 274.801 290.991 274.363 290.657 274.043C290.326 273.72 289.851 273.559 289.229 273.559C288.64 273.559 288.158 273.688 287.786 273.947C287.416 274.207 287.157 274.512 287.008 274.864L286.108 274.539C286.292 274.091 286.548 273.734 286.875 273.468C287.201 273.198 287.567 273.005 287.972 272.887C288.377 272.767 288.787 272.706 289.203 272.706C289.515 272.706 289.84 272.747 290.177 272.829C290.518 272.911 290.834 273.053 291.125 273.255C291.417 273.454 291.653 273.733 291.834 274.091C292.015 274.446 292.106 274.897 292.106 275.444V281H291.157V279.706H291.099C290.985 279.947 290.816 280.181 290.593 280.409C290.369 280.636 290.089 280.822 289.751 280.968C289.414 281.114 289.018 281.186 288.563 281.186ZM288.691 280.318C289.195 280.318 289.632 280.206 290.002 279.983C290.371 279.759 290.655 279.462 290.854 279.093C291.056 278.72 291.157 278.31 291.157 277.863V276.68C291.086 276.748 290.967 276.808 290.801 276.861C290.637 276.914 290.447 276.962 290.231 277.005C290.017 277.044 289.804 277.078 289.591 277.106C289.378 277.135 289.187 277.159 289.016 277.181C288.554 277.238 288.16 277.326 287.834 277.447C287.507 277.568 287.256 277.735 287.082 277.948C286.908 278.157 286.821 278.427 286.821 278.757C286.821 279.255 286.999 279.64 287.354 279.913C287.709 280.183 288.155 280.318 288.691 280.318ZM297.573 281.17C296.902 281.17 296.315 280.993 295.81 280.638C295.306 280.283 294.912 279.787 294.628 279.152C294.347 278.516 294.207 277.776 294.207 276.93C294.207 276.089 294.347 275.352 294.628 274.72C294.912 274.084 295.308 273.591 295.816 273.239C296.323 272.884 296.915 272.706 297.589 272.706C298.087 272.706 298.5 272.795 298.831 272.973C299.161 273.147 299.425 273.363 299.624 273.623C299.823 273.882 299.978 274.134 300.088 274.379H300.173V270.091H301.126V281H300.199V279.482H300.088C299.978 279.73 299.821 279.986 299.619 280.249C299.416 280.508 299.148 280.727 298.815 280.904C298.484 281.082 298.071 281.17 297.573 281.17ZM297.685 280.302C298.214 280.302 298.665 280.158 299.038 279.871C299.411 279.58 299.695 279.18 299.891 278.672C300.089 278.161 300.189 277.575 300.189 276.914C300.189 276.261 300.091 275.684 299.896 275.183C299.701 274.679 299.416 274.285 299.044 274.001C298.671 273.713 298.218 273.569 297.685 273.569C297.138 273.569 296.677 273.718 296.3 274.017C295.927 274.311 295.643 274.711 295.448 275.215C295.256 275.719 295.16 276.286 295.16 276.914C295.16 277.55 295.258 278.124 295.453 278.635C295.649 279.146 295.933 279.553 296.306 279.855C296.682 280.153 297.142 280.302 297.685 280.302Z" fill="#7F7F7F"/>
</svg>
