<svg width="250" height="250" viewBox="0 0 250 250" fill="none" xmlns="http://www.w3.org/2000/svg">
<g clip-path="url(#clip0_6_2)">
<path d="M240.919 124.799C240.919 132.041 234.878 137.714 228.031 137.714H215.142L215.424 202.17C215.424 203.256 215.343 204.342 215.222 205.429V211.906C215.222 220.798 208.013 228 199.111 228H192.667C192.224 228 191.781 228 191.338 227.96C190.774 228 190.21 228 189.646 228H176.556H166.889C157.988 228 150.778 220.798 150.778 211.906V202.25V176.5C150.778 169.379 145.018 163.625 137.889 163.625H112.111C104.982 163.625 99.2222 169.379 99.2222 176.5V202.25V211.906C99.2222 220.798 92.0125 228 83.1111 228H73.4444H60.5958C59.9917 228 59.3875 227.96 58.7833 227.92C58.3 227.96 57.8167 228 57.3333 228H50.8889C41.9875 228 34.7778 220.798 34.7778 211.906V166.844C34.7778 166.482 34.7778 166.079 34.8181 165.717V137.714H21.8889C14.6389 137.714 9 132.081 9 124.799C9 121.178 10.2083 117.959 13.0278 115.143L116.3 25.2188C119.119 22.4023 122.342 22 125.161 22C127.981 22 131.203 22.8047 133.619 24.8164L236.489 115.143C239.711 117.959 241.322 121.178 240.919 124.799Z" fill="#5B5B5B"/>
</g>
<defs>
<clipPath id="clip0_6_2">
<rect width="232" height="206" fill="white" transform="translate(9 22)"/>
</clipPath>
</defs>
</svg>
