<svg width="250" height="250" viewBox="0 0 250 250" fill="none" xmlns="http://www.w3.org/2000/svg">
<g clip-path="url(#clip0_4_3)">
<path d="M124.5 122.5C109.572 122.5 95.2556 116.574 84.7 106.025C74.1444 95.4758 68.2143 81.1684 68.2143 66.25C68.2143 51.3316 74.1444 37.0242 84.7 26.4752C95.2556 15.9263 109.572 10 124.5 10C139.428 10 153.744 15.9263 164.3 26.4752C174.856 37.0242 180.786 51.3316 180.786 66.25C180.786 81.1684 174.856 95.4758 164.3 106.025C153.744 116.574 139.428 122.5 124.5 122.5ZM117.948 167.852L109.769 154.229C106.955 149.526 110.341 143.594 115.793 143.594H124.5H133.163C138.615 143.594 142.001 149.57 139.187 154.229L131.008 167.852L145.695 222.3L161.525 157.744C162.405 154.185 165.835 151.855 169.397 152.778C200.222 160.513 223 188.374 223 221.509C223 228.979 216.932 235 209.5 235H151.544C150.62 235 149.785 234.824 148.993 234.517L149.125 235H99.875L100.007 234.517C99.2154 234.824 98.3359 235 97.4565 235H39.4998C32.0683 235 26 228.936 26 221.509C26 188.33 48.8221 160.469 79.6033 152.778C83.1652 151.899 86.5951 154.229 87.4746 157.744L103.305 222.3L117.992 167.852H117.948Z" fill="#5B5B5B"/>
</g>
<defs>
<clipPath id="clip0_4_3">
<rect width="197" height="225" fill="white" transform="translate(26 10)"/>
</clipPath>
</defs>
</svg>
