<svg width="250" height="250" viewBox="0 0 250 250" fill="none" xmlns="http://www.w3.org/2000/svg">
<g clip-path="url(#clip0_4_4)">
<path d="M63.14 234.875H16.7V84.7409H63.14V234.875ZM39.895 64.2612C25.045 64.2612 13 51.9132 13 37.0051C13 29.8443 15.8336 22.9767 20.8774 17.9132C25.9212 12.8497 32.762 10.0051 39.895 10.0051C47.028 10.0051 53.8688 12.8497 58.9126 17.9132C63.9564 22.9767 66.79 29.8443 66.79 37.0051C66.79 51.9132 54.74 64.2612 39.895 64.2612ZM236.95 234.875H190.61V161.791C190.61 144.373 190.26 122.036 166.465 122.036C142.32 122.036 138.62 140.96 138.62 160.536V234.875H92.23V84.7409H136.77V105.221H137.42C143.62 93.4247 158.765 80.9762 181.36 80.9762C228.36 80.9762 237 112.047 237 152.404V234.875H236.95Z" fill="#5B5B5B"/>
</g>
<defs>
<clipPath id="clip0_4_4">
<rect width="250" height="250" fill="white"/>
</clipPath>
</defs>
</svg>
