<svg width="250" height="250" viewBox="0 0 250 250" fill="none" xmlns="http://www.w3.org/2000/svg">
<g clip-path="url(#clip0_6_5)">
<path d="M67.7857 64.4375C70.3147 64.4375 72.7402 63.43 74.5285 61.6367C76.3168 59.8434 77.3214 57.4111 77.3214 54.875C77.3214 52.3389 76.3168 49.9066 74.5285 48.1133C72.7402 46.32 70.3147 45.3125 67.7857 45.3125C65.2567 45.3125 62.8312 46.32 61.0429 48.1133C59.2547 49.9066 58.25 52.3389 58.25 54.875C58.25 57.4111 59.2547 59.8434 61.0429 61.6367C62.8312 63.43 65.2567 64.4375 67.7857 64.4375ZM99.5714 54.875C99.5714 67.9437 91.7442 79.1797 80.5 84.0805V119.063C87.9696 114.72 96.671 112.25 105.929 112.25H144.071C158.097 112.25 169.5 100.815 169.5 86.75V84.0805C158.256 79.1797 150.429 67.9437 150.429 54.875C150.429 37.2641 164.653 23 182.214 23C199.776 23 214 37.2641 214 54.875C214 67.9437 206.173 79.1797 194.929 84.0805V86.75C194.929 114.92 172.162 137.75 144.071 137.75H105.929C91.9031 137.75 80.5 149.185 80.5 163.25V165.92C91.7442 170.82 99.5714 182.056 99.5714 195.125C99.5714 212.736 85.3473 227 67.7857 227C50.2241 227 36 212.736 36 195.125C36 182.056 43.8272 170.82 55.0714 165.92V163.25V84.0805C43.8272 79.1797 36 67.9437 36 54.875C36 37.2641 50.2241 23 67.7857 23C85.3473 23 99.5714 37.2641 99.5714 54.875ZM191.75 54.875C191.75 52.3389 190.745 49.9066 188.957 48.1133C187.169 46.32 184.743 45.3125 182.214 45.3125C179.685 45.3125 177.26 46.32 175.472 48.1133C173.683 49.9066 172.679 52.3389 172.679 54.875C172.679 57.4111 173.683 59.8434 175.472 61.6367C177.26 63.43 179.685 64.4375 182.214 64.4375C184.743 64.4375 187.169 63.43 188.957 61.6367C190.745 59.8434 191.75 57.4111 191.75 54.875ZM67.7857 204.688C70.3147 204.688 72.7402 203.68 74.5285 201.887C76.3168 200.093 77.3214 197.661 77.3214 195.125C77.3214 192.589 76.3168 190.157 74.5285 188.363C72.7402 186.57 70.3147 185.562 67.7857 185.562C65.2567 185.562 62.8312 186.57 61.0429 188.363C59.2547 190.157 58.25 192.589 58.25 195.125C58.25 197.661 59.2547 200.093 61.0429 201.887C62.8312 203.68 65.2567 204.688 67.7857 204.688Z" fill="#5B5B5B"/>
</g>
<defs>
<clipPath id="clip0_6_5">
<rect width="178" height="204" fill="white" transform="translate(36 23)"/>
</clipPath>
</defs>
</svg>
