<svg width="250" height="250" viewBox="0 0 250 250" fill="none" xmlns="http://www.w3.org/2000/svg">
<path d="M87.2605 192.624C87.2605 193.538 86.2032 194.27 84.8702 194.27C83.3532 194.407 82.296 193.675 82.296 192.624C82.296 191.71 83.3532 190.979 84.6863 190.979C86.0653 190.842 87.2605 191.573 87.2605 192.624ZM72.9645 190.568C72.6427 191.482 73.5621 192.533 74.9411 192.807C76.1363 193.264 77.5153 192.807 77.7911 191.893C78.0669 190.979 77.1936 189.928 75.8145 189.516C74.6194 189.196 73.2863 189.654 72.9645 190.568ZM93.2823 189.791C91.9492 190.111 91.0298 190.979 91.1677 192.03C91.3056 192.944 92.5008 193.538 93.8798 193.218C95.2129 192.898 96.1323 192.03 95.9944 191.116C95.8565 190.248 94.6153 189.654 93.2823 189.791ZM123.529 14.6562C59.7718 14.6562 11 62.7816 11 126.172C11 176.857 43.0855 220.229 88.9153 235.494C94.7992 236.545 96.8677 232.934 96.8677 229.964C96.8677 227.13 96.7298 211.5 96.7298 201.902C96.7298 201.902 64.5524 208.757 57.7952 188.282C57.7952 188.282 52.5548 174.983 45.0161 171.555C45.0161 171.555 34.4895 164.38 45.7516 164.517C45.7516 164.517 57.1976 165.431 63.4952 176.308C73.5621 193.95 90.4323 188.877 97.0057 185.86C98.0629 178.548 101.051 173.475 104.36 170.458C78.6645 167.625 52.7387 163.923 52.7387 119.956C52.7387 107.388 56.2323 101.081 63.5871 93.0371C62.3919 90.0664 58.4847 77.818 64.7823 62.0047C74.3895 59.034 96.5 74.3445 96.5 74.3445C105.694 71.7852 115.577 70.4598 125.368 70.4598C135.159 70.4598 145.042 71.7852 154.235 74.3445C154.235 74.3445 176.346 58.9883 185.953 62.0047C192.251 77.8637 188.344 90.0664 187.148 93.0371C194.503 101.127 199.008 107.434 199.008 119.956C199.008 164.06 171.933 167.579 146.237 170.458C150.466 174.069 154.052 180.924 154.052 191.664C154.052 207.066 153.914 226.125 153.914 229.872C153.914 232.843 156.028 236.454 161.866 235.402C207.834 220.229 239 176.857 239 126.172C239 62.7816 187.286 14.6562 123.529 14.6562ZM55.6806 172.286C55.0831 172.743 55.221 173.795 56.0024 174.663C56.7379 175.394 57.7952 175.714 58.3927 175.12C58.9903 174.663 58.8524 173.612 58.071 172.743C57.3355 172.012 56.2782 171.692 55.6806 172.286ZM50.7161 168.584C50.3944 169.179 50.854 169.91 51.7734 170.367C52.5089 170.824 53.4282 170.687 53.75 170.047C54.0718 169.453 53.6121 168.721 52.6927 168.264C51.7734 167.99 51.0379 168.127 50.7161 168.584ZM65.6097 184.855C64.8742 185.449 65.15 186.82 66.2073 187.688C67.2645 188.739 68.5976 188.877 69.1952 188.145C69.7927 187.551 69.5169 186.18 68.5976 185.312C67.5863 184.261 66.2073 184.123 65.6097 184.855ZM60.3694 178.136C59.6339 178.593 59.6339 179.782 60.3694 180.833C61.1048 181.884 62.346 182.341 62.9436 181.884C63.679 181.29 63.679 180.102 62.9436 179.05C62.3 177.999 61.1048 177.542 60.3694 178.136Z" fill="#5B5B5B"/>
</svg>
