<svg width="500" height="350" viewBox="0 0 500 350" fill="none" xmlns="http://www.w3.org/2000/svg">
<rect width="500" height="350" fill="#3E3E3E"/>
<path d="M310 120C312.75 120 315 122.25 315 125V224.937L313.438 222.906L270.938 167.906C269.531 166.063 267.313 165 265 165C262.687 165 260.5 166.063 259.062 167.906L233.125 201.469L223.594 188.125C222.188 186.156 219.938 185 217.5 185C215.062 185 212.812 186.156 211.406 188.156L186.406 223.156L185 225.094V225V125C185 122.25 187.25 120 190 120H310ZM190 105C178.969 105 170 113.969 170 125V225C170 236.031 178.969 245 190 245H310C321.031 245 330 236.031 330 225V125C330 113.969 321.031 105 310 105H190ZM215 165C216.97 165 218.92 164.612 220.74 163.858C222.56 163.104 224.214 161.999 225.607 160.607C226.999 159.214 228.104 157.56 228.858 155.74C229.612 153.92 230 151.97 230 150C230 148.03 229.612 146.08 228.858 144.26C228.104 142.44 226.999 140.786 225.607 139.393C224.214 138.001 222.56 136.896 220.74 136.142C218.92 135.388 216.97 135 215 135C213.03 135 211.08 135.388 209.26 136.142C207.44 136.896 205.786 138.001 204.393 139.393C203.001 140.786 201.896 142.44 201.142 144.26C200.388 146.08 200 148.03 200 150C200 151.97 200.388 153.92 201.142 155.74C201.896 157.56 203.001 159.214 204.393 160.607C205.786 161.999 207.44 163.104 209.26 163.858C211.08 164.612 213.03 165 215 165Z" fill="#7F7F7F"/>
</svg>
